<svg width="60" height="61" viewBox="0 0 60 61" fill="none" xmlns="http://www.w3.org/2000/svg">
<path d="M30 3.38892C24.7258 3.38892 19.5701 4.97895 15.1848 7.95796C10.7995 10.937 7.38154 15.1711 5.3632 20.1251C3.34487 25.079 2.81678 30.5301 3.84572 35.7891C4.87466 41.0482 7.41441 45.8789 11.1438 49.6705C14.8732 53.462 19.6248 56.0441 24.7976 57.0902C29.9704 58.1363 35.3322 57.5994 40.2049 55.5474C45.0776 53.4955 49.2423 50.0206 52.1725 45.5622C55.1027 41.1038 56.6667 35.8621 56.6667 30.5C56.6667 23.3097 53.8571 16.4139 48.8562 11.3296C43.8552 6.24526 37.0724 3.38892 30 3.38892V3.38892ZM30 54.2222C25.3851 54.2222 20.8738 52.831 17.0367 50.2243C13.1995 47.6177 10.2088 43.9128 8.4428 39.5781C6.67676 35.2435 6.21468 30.4737 7.115 25.8721C8.01532 21.2704 10.2376 17.0435 13.5008 13.7259C16.7641 10.4083 20.9217 8.14895 25.4479 7.23362C29.9741 6.31829 34.6657 6.78807 38.9293 8.58355C43.1929 10.379 46.8371 13.4196 49.401 17.3207C51.9649 21.2218 53.3333 25.8082 53.3333 30.5C53.3333 36.7916 50.875 42.8254 46.4992 47.2742C42.1233 51.7229 36.1884 54.2222 30 54.2222Z" fill="#FFF9F9"/>
<path d="M29.8 12.5897H30V9.89557H29.8C24.4913 9.89836 19.3937 12.0101 15.595 15.7804C11.7963 19.5506 9.59711 24.6808 9.46667 30.0764H12.1333C12.2592 25.3969 14.1754 20.9519 17.4745 17.6864C20.7737 14.4209 25.1955 12.5924 29.8 12.5897V12.5897Z" fill="#FFF9F9"/>
<path d="M50.1334 30.5H47.4834C47.4948 35.1673 45.7205 39.6561 42.5355 43.0175C39.3506 46.3788 35.0047 48.3492 30.4167 48.5119V51.2231C35.7106 51.0556 40.7322 48.7981 44.4162 44.9293C48.1002 41.0605 50.1569 35.8848 50.15 30.5H50.1334Z" fill="#FFF9F9"/>
<path d="M30 18.6389V15.9955H29.8C26.0806 16.002 22.5086 17.4748 19.8354 20.1041C17.1621 22.7334 15.5961 26.3142 15.4667 30.0933H18.1333C18.2539 27.0305 19.5361 24.1341 21.7111 22.0113C23.8861 19.8885 26.785 18.7042 29.8 18.7067L30 18.6389Z" fill="#FFF9F9"/>
<path d="M30.4167 42.3611V45.0722C34.1088 44.9064 37.5957 43.2987 40.1509 40.5841C42.7061 37.8695 44.1327 34.2573 44.1334 30.5H41.4667C41.4709 33.5401 40.3267 36.4658 38.2704 38.673C36.2142 40.8802 33.4028 42.2004 30.4167 42.3611V42.3611Z" fill="#FFF9F9"/>
<path d="M40 28.875H31.25V21H28.75V28.875H20V31.125H28.75V39H31.25V31.125H40V28.875Z" fill="#FEFAFA"/>
</svg>

