<svg width="112" height="42" viewBox="0 0 112 42" fill="none" xmlns="http://www.w3.org/2000/svg">
<path d="M27.52 42V36.88H31.744L28.992 28.944H12.992L10.24 36.88H14.528V42H0.960022V36.88H4.35202L15.168 5.52002H12.48V0.400024H29.568V5.52002H26.816L37.632 36.88H41.088V42H27.52ZM20.992 5.71202L14.72 23.824H27.264L20.992 5.71202Z" fill="#FFFDFD"/>
<path d="M47.1825 0.400024H62.6705V5.52002H57.5505V36.88H71.5025V29.456H76.3665V42H47.1825V36.88H51.6625V5.52002H47.1825V0.400024Z" fill="#FFFDFD"/>
<path d="M82.745 0.400024H98.233V5.52002H93.113V36.88H107.065V29.456H111.929V42H82.745V36.88H87.225V5.52002H82.745V0.400024Z" fill="#FFFDFD"/>
</svg>
