<svg width="60" height="60" viewBox="0 0 60 60" fill="none" xmlns="http://www.w3.org/2000/svg">
<path d="M35.6899 26.9958C35.3929 26.42 35.0334 25.8688 34.5514 25.3867C34.076 24.9115 33.5258 24.5462 32.945 24.2453C32.0419 23.7767 31.0465 23.5014 30 23.5014C28.2809 23.5014 26.664 24.1713 25.4487 25.3866C23.4213 27.4143 23.0606 30.458 24.3102 32.8802C24.6072 33.456 24.9668 34.0072 25.4487 34.4893C25.9259 34.9665 26.4848 35.3214 27.0741 35.6117C29.4869 36.7987 32.5979 36.4429 34.5515 34.4893C36.5789 32.4617 36.9395 29.4181 35.6899 26.9958ZM32.7477 32.6859C31.9895 33.4449 30.9942 33.8243 29.9999 33.8243C29.0057 33.8243 28.0103 33.4449 27.2524 32.6859C25.7342 31.1687 25.7342 28.7075 27.2524 27.1903C28.0104 26.4313 29.0057 26.0518 29.9999 26.0518C30.9942 26.0518 31.9895 26.4313 32.7477 27.1903C34.2656 28.7075 34.2656 31.1687 32.7477 32.6859Z" fill="#FFFCFC"/>
<path d="M51.2132 8.78679C45.5469 3.12053 38.0133 0 29.9999 0C21.9867 0 14.4531 3.12053 8.78679 8.78679C3.12053 14.4531 0 21.9867 0 29.9999C0 38.0132 3.12053 45.5468 8.78679 51.2131C14.4531 56.8793 21.9867 59.9999 29.9999 59.9999C38.0132 59.9999 45.5468 56.8793 51.2131 51.2131C56.8793 45.5468 59.9999 38.0132 59.9999 29.9999C60 21.9867 56.8793 14.4531 51.2132 8.78679ZM24.2095 38.4771C25.0994 39.0833 26.0863 39.5038 27.1149 39.8034L21.718 53.7849C18.756 52.7592 16.0016 51.188 13.5792 49.1063L24.2095 38.4771ZM10.8317 46.3588C8.74995 43.9365 7.17882 41.1822 6.15321 38.22L20.1402 32.8214C20.4353 33.8375 20.8537 34.8215 21.4656 35.7246L10.8317 46.3588ZM25.626 37.0596C25.0729 36.7189 24.5455 36.3338 24.0748 35.8631C23.5995 35.3878 23.2151 34.8613 22.8774 34.3129C20.8973 31.085 21.2824 26.805 24.0748 24.0128C25.6575 22.4301 27.7618 21.5582 29.9999 21.5582C31.5731 21.5582 33.0684 22.0107 34.3739 22.8164C34.9271 23.157 35.4546 23.5421 35.9251 24.0128C36.4006 24.488 36.7847 25.0146 37.1224 25.563C39.1026 28.7909 38.7173 33.0709 35.9251 35.8631C34.3426 37.4458 32.2382 38.3177 29.9999 38.3177C28.427 38.3177 26.9315 37.8652 25.626 37.0596ZM32.9327 20.0877L38.3276 6.10721C41.2726 7.13392 44.0108 8.69834 46.4207 10.7697L35.7904 21.399C34.9138 20.8021 33.9442 20.3876 32.9327 20.0877ZM38.5343 24.1514L49.1684 13.5172C51.2396 15.9273 52.8042 18.6653 53.8308 21.6096L39.8455 27.0072C39.5506 26.0081 39.1369 25.0404 38.5343 24.1514Z" fill="#FFFCFC"/>
</svg>
