<svg width="60" height="60" viewBox="0 0 60 60" fill="none" xmlns="http://www.w3.org/2000/svg">
<path d="M41.25 26.1328H18.75C18.4922 26.1328 18.2812 26.3437 18.2812 26.6016V50.1562C18.2812 50.4141 18.4922 50.625 18.75 50.625H41.25C41.5078 50.625 41.7188 50.4141 41.7188 50.1562V26.6016C41.7188 26.3437 41.5078 26.1328 41.25 26.1328ZM22.0312 29.8828H37.9688V36.7383H22.0312V29.8828ZM37.9688 46.875H22.0312V40.0195H37.9688V46.875Z" fill="#FFFBFB"/>
<path d="M24.8438 43.8281C24.8438 44.3254 25.0413 44.8023 25.3929 45.154C25.7446 45.5056 26.2215 45.7031 26.7188 45.7031C27.216 45.7031 27.6929 45.5056 28.0446 45.154C28.3962 44.8023 28.5938 44.3254 28.5938 43.8281C28.5938 43.3308 28.3962 42.8539 28.0446 42.5023C27.6929 42.1507 27.216 41.9531 26.7188 41.9531C26.2215 41.9531 25.7446 42.1507 25.3929 42.5023C25.0413 42.8539 24.8438 43.3308 24.8438 43.8281ZM24.8438 33.3984C24.8438 33.8957 25.0413 34.3726 25.3929 34.7243C25.7446 35.0759 26.2215 35.2734 26.7188 35.2734C27.216 35.2734 27.6929 35.0759 28.0446 34.7243C28.3962 34.3726 28.5938 33.8957 28.5938 33.3984C28.5938 32.9012 28.3962 32.4242 28.0446 32.0726C27.6929 31.721 27.216 31.5234 26.7188 31.5234C26.2215 31.5234 25.7446 31.721 25.3929 32.0726C25.0413 32.4242 24.8438 32.9012 24.8438 33.3984Z" fill="#FFFBFB"/>
<path d="M47.543 21.6152C44.8594 14.5312 38.0215 9.49219 30.0117 9.49219C22.0019 9.49219 15.1641 14.5254 12.4805 21.6094C7.43554 22.9395 3.72069 27.5508 3.74999 33.0234C3.78515 39.1406 8.53124 44.1152 14.5078 44.6484C14.7832 44.6719 15.0176 44.4551 15.0176 44.1797V40.6406C15.0176 40.4063 14.8418 40.207 14.6074 40.1777C13.0254 39.9785 11.5312 39.2871 10.3828 38.1563C8.97655 36.7793 8.20311 34.9277 8.20311 32.9648C8.20311 31.3242 8.73632 29.7773 9.73827 28.4883C10.7168 27.2344 12.0937 26.3262 13.6113 25.9277L15.832 25.3418L16.6465 23.1914C17.1504 21.8555 17.8535 20.6016 18.7383 19.4707C19.6113 18.3457 20.6484 17.3613 21.8086 16.541C24.2168 14.8477 27.0527 13.9512 30.0117 13.9512C32.9707 13.9512 35.8066 14.8477 38.2148 16.5469C39.3808 17.3672 40.4121 18.3516 41.2851 19.4766C42.1699 20.6074 42.873 21.8613 43.3769 23.1973L44.1855 25.3418L46.4004 25.9277C49.5762 26.7715 51.7969 29.6602 51.7969 32.959C51.7969 34.9277 51.0234 36.7734 49.6172 38.1504C48.4746 39.2754 46.9863 39.9727 45.4043 40.1719C45.1699 40.2012 45 40.4004 45 40.6348V44.1797C45 44.4551 45.2402 44.6719 45.5156 44.6484C51.4746 44.1094 56.209 39.1406 56.25 33.0352C56.2851 27.5625 52.5762 22.9512 47.543 21.6152V21.6152Z" fill="#FFFBFB"/>
</svg>
