<svg width="50" height="50" viewBox="0 0 50 50" fill="none" xmlns="http://www.w3.org/2000/svg">
<path d="M47.6475 27.245L39.72 7.4275C39.4339 6.71065 38.9393 6.09613 38.3002 5.66337C37.6611 5.23061 36.9069 4.99953 36.135 5H13.865C12.285 5 10.865 5.96 10.28 7.4275L2.35254 27.245C1.6328 29.0467 1.42011 31.011 1.73754 32.925L3.21254 41.7725C3.36231 42.6742 3.82719 43.4934 4.52443 44.0845C5.22167 44.6755 6.10601 44.9999 7.02004 45H42.9775C44.865 45 46.475 43.635 46.785 41.7725L48.26 32.925C48.5821 31.0114 48.3702 29.046 47.6475 27.245ZM42.3975 38.1125C42.3104 38.6402 42.0385 39.1197 41.6305 39.4654C41.2225 39.8112 40.7048 40.0006 40.17 40H9.83004C9.29523 40.0006 8.7776 39.8112 8.36958 39.4654C7.96156 39.1197 7.6897 38.6402 7.60254 38.1125L6.69004 32.63C6.63546 32.3064 6.65218 31.9747 6.73903 31.6582C6.82588 31.3418 6.98077 31.048 7.19289 30.7976C7.405 30.5472 7.66922 30.346 7.9671 30.2083C8.26498 30.0705 8.58934 29.9994 8.91754 30H41.085C42.48 30 43.5425 31.2525 43.3125 32.63L42.3975 38.1125Z" fill="#FFFAFA"/>
</svg>
