<svg width="38" height="41" viewBox="0 0 38 41" fill="none" xmlns="http://www.w3.org/2000/svg">
<path d="M20.8969 0.854196C20.3167 0.305645 19.5485 0 18.75 0C17.9515 0 17.1833 0.305645 16.6031 0.854196L1.46563 15.1605C1.00213 15.5991 0.633069 16.1277 0.381052 16.7139C0.129035 17.3002 -0.000629913 17.9317 2.30079e-06 18.5698V35.9761C0.000830742 37.2188 0.495057 38.4102 1.37404 39.2887C2.25303 40.167 3.44484 40.6605 4.6875 40.6605H9.375C10.6182 40.6605 11.8105 40.1666 12.6896 39.2875C13.5686 38.4085 14.0625 37.2162 14.0625 35.973V28.1605C14.0625 27.7461 14.2271 27.3486 14.5202 27.0556C14.8132 26.7626 15.2106 26.598 15.625 26.598H21.875C22.2894 26.598 22.6868 26.7626 22.9799 27.0556C23.2729 27.3486 23.4375 27.7461 23.4375 28.1605V35.973C23.4375 37.2162 23.9314 38.4085 24.8104 39.2875C25.6895 40.1666 26.8818 40.6605 28.125 40.6605H32.8125C34.0557 40.6605 35.248 40.1666 36.1271 39.2875C37.0061 38.4085 37.5 37.2162 37.5 35.973V18.5667C37.4998 17.9289 37.3695 17.2978 37.1169 16.7121C36.8644 16.1264 36.4949 15.5984 36.0313 15.1605L20.8969 0.847946V0.854196Z" fill="white"/>
</svg>
