<svg width="28" height="20" viewBox="0 0 28 20" fill="none" xmlns="http://www.w3.org/2000/svg">
<g clip-path="url(#clip0)">
<path d="M24.5 16.6912L19.2663 13.1445L24.5 16.6912ZM22.1666 8.40443C22.1666 10.1836 21.1219 11.8899 19.2621 13.1479C17.4024 14.406 14.88 15.1128 12.25 15.1128C9.61992 15.1128 7.09757 14.406 5.23784 13.1479C3.3781 11.8899 2.33331 10.1836 2.33331 8.40443C2.33331 6.62526 3.3781 4.91897 5.23784 3.66092C7.09757 2.40286 9.61992 1.69609 12.25 1.69609C14.88 1.69609 17.4024 2.40286 19.2621 3.66092C21.1219 4.91897 22.1666 6.62526 22.1666 8.40443V8.40443Z" stroke="#FFFCFC" stroke-width="2" stroke-linecap="round"/>
</g>
<defs>
<clipPath id="clip0">
<rect width="28" height="18.9412" fill="white" transform="translate(0 0.117645)"/>
</clipPath>
</defs>
</svg>
