<svg width="55" height="50" viewBox="0 0 55 50" fill="none" xmlns="http://www.w3.org/2000/svg">
<path d="M12.5 22.5H32.5V27.5H12.5V35L0 25L12.5 15V22.5ZM10 40H16.77C19.6567 42.5458 23.2167 44.2047 27.0228 44.7774C30.8289 45.3501 34.7194 44.8124 38.2275 43.2288C41.7356 41.6452 44.7122 39.0829 46.8002 35.8495C48.8881 32.6162 49.9988 28.849 49.9988 25C49.9988 21.1511 48.8881 17.3839 46.8002 14.1505C44.7122 10.9171 41.7356 8.35486 38.2275 6.77125C34.7194 5.18765 30.8289 4.64994 27.0228 5.22265C23.2167 5.79536 19.6567 7.45417 16.77 10H10C12.3267 6.89295 15.3458 4.37128 18.8177 2.63536C22.2895 0.899439 26.1184 -0.00290911 30 7.04571e-06C43.8075 7.04571e-06 55 11.1925 55 25C55 38.8075 43.8075 50 30 50C26.1184 50.0029 22.2895 49.1006 18.8177 47.3647C15.3458 45.6287 12.3267 43.1071 10 40V40Z" fill="#FFFDFD"/>
</svg>
