<svg width="95" height="32" viewBox="0 0 95 32" fill="none" xmlns="http://www.w3.org/2000/svg">
<g clip-path="url(#clip0)">
<g filter="url(#filter0_d)">
<path d="M60.0564 2.2384H48.293C44.6648 2.2384 42.8867 4.04059 42.8867 6.38054V13.4889C42.8867 14.9411 42.0337 15.9834 40.2331 15.9834H29.9441C29.872 15.9834 29.8123 16.0314 29.8123 16.0864V17.521C29.8123 17.5796 29.872 17.6287 29.9441 17.6287H41.5902C45.217 17.6287 46.9995 15.8347 46.9995 13.4936V6.38054C46.9995 4.9272 47.8459 3.8826 49.6568 3.8826H60.0565C60.1381 3.8826 60.2022 3.83577 60.2022 3.77715V2.34499C60.2022 2.28878 60.138 2.2384 60.0564 2.2384Z" fill="white"/>
<path d="M25.4292 2.2384H2.7926C2.71027 2.2384 2.65045 2.28878 2.65045 2.34499V3.77715C2.65045 3.83577 2.71013 3.88489 2.7926 3.88489H24.0677C25.8662 3.88489 26.7199 4.9272 26.7199 6.38043C26.7199 7.82793 25.8662 8.86784 24.0677 8.86784H7.2368C4.62309 8.86784 2.65059 10.6327 2.65059 12.9737V17.5175C2.65059 17.5796 2.71027 17.6289 2.79274 17.6289H6.62792C6.70298 17.6289 6.76565 17.5796 6.76565 17.5175V12.9737C6.76565 11.5297 7.79783 10.5109 9.29546 10.5109H25.4292C29.0502 10.5109 30.8254 8.72255 30.8254 6.38157C30.8254 4.04426 29.0502 2.2384 25.4292 2.2384Z" fill="white"/>
<path d="M90.643 9.74152C90.5923 9.69583 90.5923 9.61741 90.643 9.57287C91.7706 8.82216 92.3286 7.69088 92.3286 6.38157C92.3286 4.04414 90.5571 2.2384 86.9251 2.2384H64.2943C64.2171 2.2384 64.1605 2.28878 64.1605 2.34969V3.77715C64.1605 3.83577 64.2171 3.88489 64.2943 3.88489H85.5661C87.3594 3.88489 88.2248 4.9272 88.2248 6.38043C88.2248 7.82793 87.3652 8.86784 85.5661 8.86784H85.5397L64.2943 8.87139C64.2171 8.87139 64.1605 8.91593 64.1605 8.98142V10.4078C64.1605 10.4652 64.2171 10.5109 64.2943 10.5109H85.5661C87.9116 10.5331 88.2204 12.3693 88.2204 13.3086L88.2248 13.4853C88.2248 14.941 87.3594 15.988 85.5661 15.988H64.2943C64.2171 15.988 64.1605 16.0324 64.1605 16.0909V17.5209C64.1605 17.5795 64.2171 17.6286 64.2943 17.6286H86.9253C90.5602 17.6286 92.3287 15.6893 92.3287 13.4853V13.3086C92.3286 11.9033 91.7706 10.5613 90.643 9.74152Z" fill="white"/>
</g>
</g>
<defs>
<filter id="filter0_d" x="-1.34955" y="2.2384" width="97.6783" height="23.3904" filterUnits="userSpaceOnUse" color-interpolation-filters="sRGB">
<feFlood flood-opacity="0" result="BackgroundImageFix"/>
<feColorMatrix in="SourceAlpha" type="matrix" values="0 0 0 0 0 0 0 0 0 0 0 0 0 0 0 0 0 0 127 0" result="hardAlpha"/>
<feOffset dy="4"/>
<feGaussianBlur stdDeviation="2"/>
<feComposite in2="hardAlpha" operator="out"/>
<feColorMatrix type="matrix" values="0 0 0 0 0 0 0 0 0 0 0 0 0 0 0 0 0 0 0.25 0"/>
<feBlend mode="normal" in2="BackgroundImageFix" result="effect1_dropShadow"/>
<feBlend mode="normal" in="SourceGraphic" in2="effect1_dropShadow" result="shape"/>
</filter>
<clipPath id="clip0">
<rect width="95" height="32" fill="white"/>
</clipPath>
</defs>
</svg>
