<svg width="60" height="60" viewBox="0 0 60 60" fill="none" xmlns="http://www.w3.org/2000/svg">
<path d="M20.8204 9.10668C17.6138 9.68002 15.0338 12.0534 14.2204 15.1733C13.9271 16.3 13.9071 16.96 13.9404 25.7C13.9604 33.7267 13.9671 33.9134 14.1004 34.5334C14.8404 37.8734 17.2138 40.2534 20.5871 41.04C21.0271 41.14 21.5871 41.16 25.1938 41.18C28.9271 41.2067 29.3138 41.2 29.4138 41.1C29.5138 41 29.5204 39.7134 29.5204 25.1267C29.5204 14.3134 29.5004 9.22001 29.4538 9.12668C29.3871 9.00668 29.2738 9.00002 25.3671 9.00668C22.1938 9.01335 21.2404 9.03335 20.8204 9.10668ZM26.8538 25.1067V38.6134L24.1404 38.58C21.6404 38.5534 21.3738 38.54 20.8738 38.4134C18.7271 37.86 17.1338 36.2067 16.6871 34.0534C16.5404 33.38 16.5404 16.7934 16.6804 16.1334C17.0804 14.26 18.3804 12.7067 20.1338 12.0067C21.0138 11.6533 21.4204 11.6133 24.2738 11.6067L26.8538 11.6V25.1067Z" fill="#FFFDFD"/>
<path d="M21.3938 15.6733C20.9738 15.7533 20.3338 16.0733 19.9938 16.3733C19.2938 16.98 18.9471 17.84 19.0005 18.8533C19.0271 19.38 19.0605 19.52 19.2738 19.9467C19.5871 20.5933 20.0605 21.0667 20.7071 21.3867C21.1538 21.6067 21.2671 21.6333 21.8471 21.6533C22.3738 21.6733 22.5605 21.6533 22.9138 21.5333C24.3605 21.0467 25.2338 19.64 24.9871 18.2C24.7005 16.4867 23.0738 15.34 21.3938 15.6733Z" fill="#FFFDFD"/>
<path d="M32.7671 9.04669C32.7405 9.06669 32.7205 16.2934 32.7205 25.1067C32.7205 39.6467 32.7271 41.12 32.8271 41.16C33.0071 41.2267 38.1805 41.2 38.8205 41.1334C41.5272 40.8267 43.9138 39.18 45.2138 36.7334C45.3805 36.42 45.6005 35.8934 45.7138 35.5667C46.1339 34.3134 46.1205 34.6467 46.1205 25.0667C46.1205 17.42 46.1072 16.28 46.0138 15.7934C45.3538 12.32 42.7072 9.70002 39.2272 9.10003C38.7605 9.02002 38.0405 9.00002 35.7205 9.00002C34.1205 9.00002 32.7871 9.02002 32.7671 9.04669ZM39.8872 23.5667C40.9272 23.84 41.7805 24.6334 42.1272 25.6467C42.3472 26.2734 42.3405 27.1934 42.1205 27.7667C41.7138 28.82 40.9138 29.56 39.8872 29.8334C38.2205 30.2667 36.4471 29.26 35.9605 27.6067C35.8138 27.1 35.8205 26.2467 35.9871 25.7267C36.4871 24.0934 38.2205 23.1334 39.8872 23.5667Z" fill="#FFFDFD"/>
<path d="M51.0071 46.0267C49.9738 46.3667 49.3605 47.36 49.5338 48.44C49.6405 49.1333 50.0405 49.68 50.6538 49.9933C51.4871 50.4067 52.3738 50.3 53.0405 49.7C53.5405 49.2467 53.7538 48.7733 53.7538 48.1C53.7538 47.4667 53.5671 46.9933 53.1471 46.5733C52.6205 46.0467 51.6738 45.8067 51.0071 46.0267ZM52.1871 47C52.5871 47.2067 52.8071 47.54 52.8405 47.9933C52.8805 48.5867 52.6271 49.0133 52.1005 49.2333C51.2071 49.6067 50.1938 48.7467 50.4471 47.82C50.5538 47.4067 50.7338 47.1733 51.0671 47.0067C51.4271 46.8333 51.8471 46.8267 52.1871 47Z" fill="#FFFDFD"/>
<path d="M6.32043 48.1V50.14L6.74043 50.12L7.15377 50.1L7.1871 48.8134L7.22043 47.5267L8.1871 48.8267L9.15377 50.1334L9.55377 50.12L9.95377 50.1V48.1V46.1L9.54043 46.08L9.12043 46.06V47.3733V48.6934L8.14043 47.38L7.15377 46.0667H6.74043H6.32043V48.1Z" fill="#FFFDFD"/>
<path d="M12.9871 48.1V50.1333H13.4204H13.8537V48.1V46.0667H13.4204H12.9871V48.1Z" fill="#FFFDFD"/>
<path d="M16.8871 46.1534C16.8671 46.2 16.8605 47.1067 16.8671 48.1667L16.8871 50.1L17.3071 50.12L17.7205 50.14V48.7934V47.44L18.7205 48.7867L19.7205 50.1334H20.1205H20.5205V48.1V46.0667H20.0871H19.6538L19.6405 47.3467L19.6205 48.6267L18.6605 47.3467L17.7071 46.0667H17.3138C17.0538 46.0667 16.9071 46.0934 16.8871 46.1534Z" fill="#FFFDFD"/>
<path d="M23.3671 46.1133C23.3404 46.1333 23.3204 46.3333 23.3204 46.5467V46.9333H23.9871H24.6538V48.5333V50.1333H25.0871H25.5204V48.5333V46.9333H26.1538H26.7871V46.5V46.0667H25.1004C24.1671 46.0667 23.3871 46.0867 23.3671 46.1133Z" fill="#FFFDFD"/>
<path d="M29.7205 48.1V50.1333H31.2871H32.8538V49.7333V49.3333H31.6871H30.5205V48.8667V48.4H31.5871H32.6538V48.0333V47.6667H31.5871H30.5205V47.2667V46.8667L31.6738 46.8533L32.8205 46.8333L32.8405 46.4467L32.8605 46.0667H31.2871H29.7205V48.1Z" fill="#FFFDFD"/>
<path d="M36.1538 46.1534C36.1338 46.2 36.1271 47.1067 36.1338 48.1667L36.1538 50.1L36.5738 50.12L36.9871 50.14V48.7867V47.44L37.9871 48.7867L38.9872 50.1334H39.3872H39.7872V48.1V46.0667H39.3538H38.9205L38.9071 47.3467L38.8871 48.6267L37.9271 47.3467L36.9738 46.0667H36.5805C36.3205 46.0667 36.1738 46.0934 36.1538 46.1534Z" fill="#FFFDFD"/>
<path d="M43.1871 48.0933V50.1333H44.0738C45.1005 50.1333 45.5871 50.0333 46.0271 49.7267C47.3272 48.8333 47.1272 46.92 45.6671 46.2467C45.3938 46.12 45.2071 46.1 44.2738 46.08L43.1871 46.0533V48.0933ZM45.3671 47.06C45.9271 47.32 46.1671 48.0333 45.8871 48.6267C45.6738 49.0667 45.2405 49.2667 44.4805 49.2667H43.9871V48.1V46.9333H44.5405C44.9338 46.9333 45.1671 46.9733 45.3671 47.06Z" fill="#FFFDFD"/>
<path d="M41.1738 51.94C40.2471 52.06 39.4204 52.4933 38.7404 53.22C37.2538 54.82 37.3004 57.2533 38.8538 58.8C39.4271 59.38 39.9471 59.68 40.6938 59.8667C41.9204 60.18 43.1604 59.9333 44.1738 59.1667C44.5671 58.8733 45.0804 58.3 45.0404 58.2C45.0271 58.1733 44.7538 57.9267 44.4271 57.64L43.8404 57.1267L43.6604 57.36C42.8004 58.4867 41.0604 58.6067 40.0538 57.6C39.9071 57.4533 39.7071 57.18 39.6071 56.9867C39.4404 56.6667 39.4204 56.5667 39.4204 55.9667C39.4204 55.3933 39.4404 55.2533 39.5871 54.9667C40.0804 53.9467 41.3004 53.3933 42.3604 53.7C42.8538 53.84 43.3204 54.1333 43.6138 54.4867L43.8404 54.76L44.1338 54.52C44.2938 54.3933 44.5738 54.1467 44.7538 53.9867L45.0871 53.6867L44.8271 53.3667C43.9604 52.3133 42.5604 51.7667 41.1738 51.94Z" fill="#FFFDFD"/>
<path d="M8.20046 52.2C6.6138 52.62 5.7938 53.68 6.14713 54.88C6.40046 55.7666 7.24046 56.2 9.4738 56.6C10.9738 56.8667 11.4138 57.0867 11.4138 57.56C11.4138 57.8867 11.2205 58.1267 10.8005 58.32C10.4405 58.4867 10.3605 58.5 9.4538 58.5C8.38046 58.5 7.96046 58.4133 7.16713 58.0533C6.92046 57.94 6.70713 57.86 6.6938 57.8733C6.6138 57.9733 5.98046 59.1533 6.00046 59.1667C6.06713 59.24 7.1338 59.6267 7.5738 59.7467C8.30713 59.94 9.8738 59.9867 10.6738 59.84C12.1671 59.56 12.9071 58.8733 12.9738 57.72C13.0271 56.7666 12.7605 56.2733 11.9405 55.8466C11.3538 55.54 10.8471 55.3933 9.5538 55.1333C8.42713 54.9133 8.10713 54.8066 7.8738 54.5866C7.66713 54.3933 7.66713 54.0466 7.88046 53.8333C8.36046 53.3533 10.0805 53.3333 11.4138 53.8C11.6338 53.8733 11.8338 53.9133 11.8605 53.8866C11.9071 53.8333 12.3871 52.7066 12.3871 52.64C12.3871 52.58 11.3671 52.28 10.7938 52.1733C10.0205 52.0266 8.82046 52.04 8.20046 52.2Z" fill="#FFFDFD"/>
<path d="M13.8804 52.2467C13.9004 52.3134 14.3671 53.9733 14.9204 55.9333C15.4738 57.8933 15.9404 59.5533 15.9604 59.6133C15.9938 59.72 16.1004 59.7333 16.9204 59.7333H17.8471L17.9204 59.48C18.5804 57.0933 19.2471 54.8533 19.2804 54.9333C19.3004 54.9867 19.6138 56.08 19.9738 57.3666L20.6271 59.7L21.5604 59.72L22.4938 59.74L23.5538 56.02C24.1338 53.9733 24.6204 52.26 24.6404 52.2134C24.6604 52.1534 24.4738 52.1334 23.8271 52.1334H22.9938L22.9004 52.4467C22.8471 52.6267 22.5271 53.8267 22.1871 55.1133C21.8404 56.4067 21.5471 57.4666 21.5204 57.4666C21.5004 57.4666 21.1871 56.4533 20.8271 55.2133C20.4671 53.98 20.1138 52.78 20.0404 52.5467L19.9138 52.1267L19.2338 52.1467L18.5538 52.1667L17.7738 54.8333C17.3471 56.3 16.9938 57.5133 16.9871 57.5333C16.9804 57.5533 16.6804 56.4733 16.3271 55.1333C15.9671 53.7933 15.6338 52.5734 15.5938 52.4134L15.5138 52.1334H14.6804C13.9138 52.1334 13.8471 52.14 13.8804 52.2467Z" fill="#FFFDFD"/>
<path d="M26.5204 55.9334V59.7333H27.3871H28.2538L28.2404 55.9467L28.2204 52.1667L27.3738 52.1467L26.5204 52.1267V55.9334Z" fill="#FFFDFD"/>
<path d="M30.0538 52.9667V53.8H31.2538H32.4538V56.7667V59.7333H33.2871H34.1204V56.7667V53.8L35.3071 53.7867L36.4871 53.7667V52.9667V52.1667L33.2738 52.1467L30.0538 52.1333V52.9667Z" fill="#FFFDFD"/>
<path d="M46.7871 55.9334V59.7333H47.5871H48.3871V58.2333V56.7334H50.1538H51.9204V58.2333V59.7333H52.7204H53.5204L53.5071 55.9467L53.4871 52.1667L52.7071 52.1467L51.9204 52.1267V53.6334V55.1334H50.1538H48.3871V53.6334V52.1334H47.5871H46.7871V55.9334Z" fill="#FFFDFD"/>
</svg>
