<svg width="60" height="60" viewBox="0 0 60 60" fill="none" xmlns="http://www.w3.org/2000/svg">
<path d="M30 5C16.4475 5 5 16.4475 5 30C5 43.5525 16.4475 55 30 55C43.5525 55 55 43.5525 55 30C55 16.4475 43.5525 5 30 5ZM30 17.5C34.3175 17.5 37.5 20.68 37.5 25C37.5 29.32 34.3175 32.5 30 32.5C25.685 32.5 22.5 29.32 22.5 25C22.5 20.68 25.685 17.5 30 17.5ZM17.235 41.93C19.4775 38.63 23.2175 36.43 27.5 36.43H32.5C36.785 36.43 40.5225 38.63 42.765 41.93C39.57 45.35 35.0375 47.5 30 47.5C24.9625 47.5 20.43 45.35 17.235 41.93Z" fill="#FFFDFD"/>
</svg>
