<svg width="60" height="60" viewBox="0 0 60 60" fill="none" xmlns="http://www.w3.org/2000/svg">
<path d="M30 5.625C25.7663 5.62614 21.6059 6.72967 17.9282 8.82699C14.2505 10.9243 11.1824 13.9431 9.02567 17.5863C6.86898 21.2295 5.69811 25.3715 5.62831 29.6046C5.55852 33.8377 6.59219 38.0161 8.6276 41.7284L6.62463 48.7397C6.44093 49.3827 6.43251 50.0631 6.60025 50.7105C6.76799 51.3578 7.10579 51.9486 7.57864 52.4214C8.0515 52.8943 8.6422 53.2321 9.28954 53.3999C9.93689 53.5677 10.6173 53.5593 11.2603 53.3756L18.2719 51.3724C21.5302 53.1603 25.1543 54.1795 28.8669 54.352C32.5795 54.5245 36.2824 53.8458 39.6925 52.3678C43.1026 50.8897 46.1296 48.6515 48.542 45.8242C50.9544 42.9969 52.6884 39.6554 53.6114 36.0552C54.5344 32.455 54.6219 28.6914 53.8673 25.0522C53.1126 21.413 51.5359 17.9945 49.2575 15.0582C46.9791 12.1218 44.0594 9.74526 40.7217 8.11031C37.384 6.47535 33.7167 5.62525 30 5.625ZM35.6543 45C35.6473 45.0054 35.6346 45 35.6248 45C32.9138 45 30.2295 44.4655 27.7253 43.4272C25.2211 42.3888 22.9461 40.867 21.0306 38.9487C19.115 37.0304 17.5964 34.7533 16.5616 32.2477C15.5269 29.742 14.9962 27.0569 15 24.3459C15.0086 22.1135 15.9012 19.9753 17.4825 18.3995C19.0638 16.8236 21.205 15.9384 23.4375 15.9375C24.0527 15.9383 24.6567 16.1013 25.1888 16.41C25.7208 16.7188 26.1621 17.1623 26.468 17.696L29.2083 22.4913C29.5384 23.0698 29.7086 23.7257 29.7015 24.3917C29.6945 25.0577 29.5103 25.7098 29.168 26.2812L27.5013 29.059C28.3256 30.4881 29.512 31.6746 30.941 32.4989L33.7186 30.8323C34.2899 30.49 34.9421 30.3058 35.608 30.2987C36.274 30.2916 36.9299 30.4617 37.5085 30.7917L42.3038 33.5318C42.8376 33.8377 43.2812 34.2789 43.59 34.811C43.8988 35.3431 44.0618 35.9473 44.0625 36.5625C44.0617 38.7949 43.1765 40.9361 41.6006 42.5174C40.0248 44.0987 37.8867 44.9914 35.6543 45Z" fill="white"/>
<path d="M31.9805 36.2484C31.7212 36.4041 31.4281 36.4947 31.1262 36.5125C30.8243 36.5302 30.5226 36.4747 30.2468 36.3506C27.3143 35.0331 24.9669 32.6857 23.6494 29.7532C23.5254 29.4774 23.4699 29.1757 23.4878 28.8738C23.5056 28.5719 23.5962 28.2788 23.7518 28.0195L25.9521 24.3518L23.2882 19.6898C22.0755 19.7279 20.9247 20.2349 20.0783 21.1043C19.2318 21.9736 18.7557 23.1375 18.75 24.3508C18.7468 26.5689 19.181 28.7659 20.0276 30.816C20.8742 32.8662 22.1167 34.7293 23.684 36.2989C25.2514 37.8684 27.1127 39.1136 29.1617 39.9631C31.2106 40.8127 33.4069 41.25 35.625 41.25H35.6492C36.8625 41.2443 38.0264 40.7682 38.8957 39.9217C39.7651 39.0753 40.2721 37.9245 40.3102 36.7118L35.6485 34.0476L31.9805 36.2484Z" fill="white"/>
</svg>
