<svg width="60" height="61" viewBox="0 0 60 61" fill="none" xmlns="http://www.w3.org/2000/svg">
<g clip-path="url(#clip0)">
<path d="M27.0083 59.9095C22.3866 59.4669 17.7074 57.8071 13.6877 55.1845C10.3194 52.9869 9.55877 52.0835 9.55877 50.2806C9.55877 46.6591 13.5406 40.3162 20.3533 33.0854C24.2225 28.9787 29.6119 24.1651 30.1948 24.2955C31.3277 24.5489 40.3864 33.385 43.7776 37.5445C49.1401 44.1221 51.6055 49.5077 50.353 51.9088C49.4009 53.734 43.4933 57.3014 39.1532 58.6719C35.5761 59.8014 30.8782 60.2802 27.0083 59.9095ZM5.00945 46.5153C2.21044 42.2212 0.79629 37.9938 0.113528 31.8795C-0.111921 29.8605 -0.0311318 28.7057 0.625465 24.5617C1.44382 19.3968 4.38513 13.4217 7.91939 9.74448C9.42466 8.17833 9.5591 8.14017 11.3939 8.75828C13.6221 9.5089 16.0016 11.1523 19.6919 14.4892L21.845 16.4361L20.6693 17.8805C15.2114 24.5856 9.44977 34.0898 7.27841 39.9698C6.09796 43.1664 5.62184 46.3752 6.12976 47.7111C6.47267 48.6131 6.15769 48.2768 5.00945 46.5153ZM54.1407 47.2456C54.4172 45.8958 54.0675 43.4167 53.2479 40.9164C51.4727 35.5014 45.5394 25.4278 40.0911 18.5787L38.3759 16.4227L40.2315 14.7189C42.6543 12.4942 44.3365 11.1621 46.1515 10.0308C47.5837 9.13815 49.6305 8.3479 50.5103 8.3479C51.0527 8.3479 52.9622 10.3296 54.5038 12.4923C56.8913 15.8418 58.6477 19.9022 59.5376 24.1291C60.1125 26.8602 60.1604 32.7063 59.6302 35.4307C59.195 37.6665 58.2762 40.5667 57.3798 42.5337C56.7082 44.0075 55.0378 46.8698 54.3057 47.8012C53.9294 48.28 53.9291 48.2789 54.1407 47.2456H54.1407ZM27.5032 7.32538C24.9893 6.04879 21.1112 4.67845 18.9689 4.30978C18.2179 4.18053 16.9367 4.10845 16.1219 4.1496C14.3544 4.23885 14.4333 4.14642 17.2688 2.80678C19.6262 1.69304 21.5926 1.0381 24.262 0.477603C27.2648 -0.152915 32.9091 -0.160315 35.8642 0.462393C39.0559 1.13497 42.8143 2.53358 44.932 3.83686L45.5615 4.2242L44.1173 4.15128C41.2476 4.00636 37.0653 5.16574 32.5751 7.35093C31.2207 8.01004 30.0425 8.53645 29.9567 8.52073C29.871 8.50502 28.7669 7.9671 27.5032 7.32537V7.32538Z" fill="#FFFBFB"/>
</g>
<defs>
<clipPath id="clip0">
<rect width="60" height="60.033" fill="white"/>
</clipPath>
</defs>
</svg>
